<svg xmlns="http://www.w3.org/2000/svg" width="32" height="32" viewBox="0 0 32 32"><g transform="translate(0 -1020.362)" stroke-linejoin="round"><g fill="#3cb042" fill-rule="evenodd"><path d="M8.463 1041.337c-.77-2.71-1.21-5.487-.797-8.434 3.766.317 7.078 1.543 10.51 2.526-3.23 1.97-5.695 4.16-9.713 5.907z" stroke="#3cb042" stroke-width=".8" stroke-linecap="round"/><path d="M24.24 1030.298c-4.135 1.42-6.628 3.5-9.68 5.354 3.215.75 6.428 1.87 9.64 1.97.63-2.81.603-5.227.04-7.324z" stroke="#3cb042" stroke-width=".8" stroke-linecap="round"/><path d="M14.344 1034.08c-.226 1.35-.26 2.668.224 3.9 1.413.262 2.827-.417 4.24-.816-.095-1.396-.436-2.742-1.128-4.02-1.178-.152-2.276.257-3.336.935z" stroke="#339538" stroke-width=".1"/></g><circle cx="16" cy="1036.362" r="15.399" fill="none" stroke="#fff" stroke-width="1.202" stroke-linecap="round"/></g></svg>